<svg xmlns="http://www.w3.org/2000/svg" viewBox="0 0 1280 360" width="1280" height="360" role="img" aria-label="Tessera: a patient census, one tile per patient">
  <rect width="1280" height="360" fill="#0e2a2b"/>
  <g transform="translate(96 84)">
    <rect x="0" y="0" width="84" height="84" rx="22" fill="#6bb8d6"/>
    <rect x="108" y="4" width="76" height="76" rx="20" fill="none" stroke="#86b8a6" stroke-width="7"/>
    <rect x="4" y="108" width="76" height="76" rx="20" fill="none" stroke="#86b8a6" stroke-width="7"/>
    <rect x="104" y="104" width="84" height="84" rx="22" fill="#6bb8d6"/>
  </g>
  <text x="332" y="190" font-family="Iowan Old Style, Charter, Georgia, 'DejaVu Serif', serif" font-size="108" font-weight="600" fill="#f2f5f5">Tessera</text>
  <text x="336" y="244" font-family="'DejaVu Sans', Helvetica, Arial, sans-serif" font-size="30" fill="#9cc9bb">One tile per patient. The whole ward at a glance.</text>
  <text x="336" y="290" font-family="'DejaVu Sans', Helvetica, Arial, sans-serif" font-size="21" fill="#6f9a95">Dashboard, REST API and CLI for hospital patient data</text>
  <g transform="translate(1000 60)" opacity="0.9">
    <rect width="26" height="26" rx="7" fill="#6bb8d6"/><rect x="34" width="26" height="26" rx="7" fill="none" stroke="#86b8a6" stroke-width="3"/><rect x="68" width="26" height="26" rx="7" fill="#6bb8d6"/><rect x="102" width="26" height="26" rx="7" fill="none" stroke="#86b8a6" stroke-width="3"/>
    <rect y="34" width="26" height="26" rx="7" fill="none" stroke="#86b8a6" stroke-width="3"/><rect x="34" y="34" width="26" height="26" rx="7" fill="#6bb8d6"/><rect x="68" y="34" width="26" height="26" rx="7" fill="none" stroke="#c42e50" stroke-width="3"/><rect x="102" y="34" width="26" height="26" rx="7" fill="none" stroke="#86b8a6" stroke-width="3"/>
    <rect y="68" width="26" height="26" rx="7" fill="#6bb8d6"/><rect x="34" y="68" width="26" height="26" rx="7" fill="#6bb8d6"/><rect x="68" y="68" width="26" height="26" rx="7" fill="none" stroke="#86b8a6" stroke-width="3"/><rect x="102" y="68" width="26" height="26" rx="7" fill="#6bb8d6"/>
  </g>
</svg>
